<?xml version="1.0" encoding="utf-8"?>
<!-- Generator: Adobe Illustrator 23.0.0, SVG Export Plug-In . SVG Version: 6.00 Build 0)  -->
<svg version="1.1" id="Layer_1" xmlns="http://www.w3.org/2000/svg" xmlns:xlink="http://www.w3.org/1999/xlink" x="0px" y="0px"
	 viewBox="0 0 1920 523" style="enable-background:new 0 0 1920 523;" xml:space="preserve">
<style type="text/css">
	.st0{fill:#AC8A38;}
	.st1{fill:#C8972C;}
	.st2{fill:none;}
	.st3{fill:#C09739;}
	.st4{fill:#231F20;}
	.st5{fill:#C29A40;}
	.st6{fill:none;stroke:#9F9E9E;stroke-width:5.6919;stroke-miterlimit:10;}
</style>
<g>
	<g>
		<g>
			<polygon class="st0" points="164.4,441.5 130.2,440.1 130.2,286.6 164.4,306.5 			"/>
		</g>
	</g>
	<g>
		<g>
			<polygon class="st0" points="229.3,516.7 8.3,389.1 93.1,399.6 195.1,457.9 195.1,324.2 229.3,343.9 			"/>
		</g>
	</g>
	<polygon class="st1" points="229.3,478.2 282.1,447.7 318.5,465.2 229.3,516.7 	"/>
	<polygon class="st1" points="229.3,297.8 256.2,282.1 256,246.1 229.1,261.1 202.8,282.8 	"/>
	<g>
		<polygon class="st2" points="229.3,44.8 201.2,61 388.5,169.2 416.5,152.9 416.5,151.8 		"/>
		<polygon class="st2" points="41.7,153.1 229,261.6 280.4,231.9 92,124.1 		"/>
		<polygon class="st2" points="308.7,433.3 354.5,405 354.6,310.2 308.7,337.1 		"/>
		<path class="st1" d="M450.2,133.6l-33.7,19.3v217.9l-27.8,15.6l0.1-134.5l-115.1,66v173.4l107.4-62.3l69.1-40.6V133.9V133.6z
			 M354.5,405l-45.8,28.3v-96.1l45.9-27L354.5,405z"/>
		<polygon class="st1" points="354.3,226.9 388.8,206.9 388.8,169.4 388.5,169.2 354.6,188.8 		"/>
		<polygon class="st3" points="229.3,6.3 135.2,60.6 354.6,187.3 354.6,188.8 388.5,169.2 201.2,61 229.3,44.8 416.5,151.8 
			416.5,152.9 450.2,133.6 		"/>
		<polygon class="st1" points="280.5,231.9 280.5,269.6 312.7,251.2 312.7,213.4 312.5,213.3 280.4,231.9 		"/>
		<polygon class="st0" points="8,134.2 8,388.4 102.3,442.3 102.3,270.5 69.8,251.8 69.7,387 41.7,370.1 41.6,153.1 41.7,153.1 
			8.6,133.9 		"/>
		<polygon class="st3" points="8.6,133.9 41.7,153.1 92,124.1 280.4,231.9 312.5,213.3 91.2,86 		"/>
	</g>
	<g>
		<polyline class="st0" points="229.1,261.1 229.1,297.7 69.4,205.4 69.4,170.2 		"/>
	</g>
</g>
<g>
	<g>
		<g>
			<g>
				<g>
					<path class="st4" d="M1343.3,237.4c-3.5,0-7.7-1.1-12.6-3.2l4.9-12.4c3.6,1.5,6.4,2.3,8.4,2.3c3,0,5.3-0.6,6.9-1.8
						c1.6-1.2,2.9-2.8,3.8-4.8c0.9-2,1.4-4.3,1.7-7c0.2-2.7,0.4-5.3,0.4-7.8V91.8h13.3v110.9c0,4.5-0.4,8.8-1,13
						c-0.7,4.2-2,7.9-3.9,11.1c-1.9,3.3-4.7,5.8-8.2,7.7C1353.3,236.5,1348.8,237.4,1343.3,237.4z"/>
					<path class="st4" d="M1403.6,80.1h13.3V210h29.2v13.3h-42.5V80.1z"/>
					<path class="st4" d="M1437.5,210h42.4v-81.5h13.3V210h33c6.7,0,12.2-2,16.5-6.1c4.2-4.1,6.4-10,6.4-17.9v-57.5h13.3v54.7
						c0,3.8,0.7,7.4,2.2,11.1c1.4,3.6,3.5,6.7,6.2,9.4c2.7,2.6,6,4.8,9.8,6.4c3.9,1.6,8.3,2.4,13.1,2.4c9.7,0,16.9-2.7,21.6-8.1
						c4.6-5.4,6.9-12.4,6.9-21.2V106h13.3v75.3c0,2.2-0.1,4.3-0.3,6.1c-0.2,1.8-0.4,3.3-0.6,4.6c1.2,2.6,2.8,5.1,4.6,7.4
						c1.8,2.3,4,4.2,6.6,5.8c2.6,1.6,5.6,2.7,9.3,3.6c3.6,0.8,8.8,1.2,15.6,1.2v13.3c-7.7,0-13.8-0.5-18.3-1.6
						c-4.4-1.1-8.3-2.5-11.5-4.3c-3.3-1.8-6-3.9-8.2-6.2c-2.2-2.3-3.2-3.3-3.1-3.1c-1.9,4.4-6.1,8.3-12.6,11.8
						c-6.5,3.5-14.2,5.2-23.2,5.2c-8.7,0-16.6-1.9-23.6-5.6c-7-3.7-11.4-7.6-13.3-11.6c-1.4,3-4.9,6.3-10.6,9.9
						c-5.7,3.6-12.3,5.4-20,5.4h-88.6V210z"/>
					<path class="st4" d="M1661.8,210h19.3c-4-6.4-6-15.1-6-26.2c0-7.6,1.4-14.8,4.2-21.5c2.8-6.7,6.6-12.7,11.4-17.8
						c4.8-5.1,10.5-9.2,17.1-12.1c6.6-2.9,13.8-4.4,21.6-4.4c8.1,0,15.6,1.4,22.4,4.3c6.8,2.9,12.7,6.8,17.7,11.8
						c5,5,8.9,10.9,11.7,17.6c2.8,6.7,4.2,14.1,4.2,22.1c0,5.8-0.7,11.1-2.2,16.1c-1.5,5-2.8,8.4-3.9,10.1h20.4v13.3h-30.2
						c-4.6,4.7-10.4,8.6-17.3,11.5c-6.9,2.9-14.5,4.4-22.8,4.4c-8,0-15.3-1.5-22-4.5c-6.7-3-12.2-6.8-16.6-11.4h-29V210z
						 M1729.5,225.9c6.1,0,11.8-1.1,17-3.2c5.2-2.1,9.7-5,13.5-8.7c3.8-3.7,6.7-8.1,8.9-13.3c2.2-5.2,3.3-10.8,3.3-17
						c0-6.1-1.1-11.8-3.2-17c-2.1-5.2-5.1-9.7-8.9-13.5c-3.8-3.7-8.3-6.7-13.6-8.8c-5.2-2.1-10.9-3.2-17-3.2c-6,0-11.5,1.1-16.5,3.4
						c-5,2.2-9.3,5.3-12.9,9.2c-3.6,3.9-6.5,8.4-8.5,13.6c-2.1,5.2-3.1,10.7-3.1,16.4c0,5.6,1,11,3.1,16.2c2.1,5.2,4.9,9.7,8.6,13.5
						c3.7,3.8,8,6.8,13,9.1C1718.2,224.8,1723.6,225.9,1729.5,225.9z"/>
					<path class="st4" d="M1791.1,210h29.2V80.1h31.9v13.3h-18.6v129.9h-42.5V210z"/>
					<path class="st4" d="M1876.4,80.1h13.3v143.2h-13.3V80.1z"/>
				</g>
			</g>
		</g>
		<g>
			<path class="st4" d="M638.8,224.1c-2.1,0.6-4.5,0.9-7.3,0.9c-2.1,0-4.5-0.2-7.2-0.7c-2.7-0.5-5.5-1.5-8.4-3.2
				c-2.8-1.6-5.6-4-8.4-7.2c-2.7-3.2-5.1-7.3-7-12.6l-4.6-11.8h-50.9l-14.5,34.5h-8.2l50.9-120h5.5l40,97.3c1.5,3.4,2.8,6.3,4.1,8.6
				c1.3,2.4,2.7,4.3,4.3,5.7c1.6,1.5,3.3,2.5,5.1,3.3c1.8,0.7,4,1.2,6.5,1.5V224.1z M547.9,182.3h44.5l-21.8-52.7L547.9,182.3z"/>
			<path class="st4" d="M664,224.1h-16.4v-98.2c0-5.4-0.8-9.8-2.3-13.2c-1.5-3.3-5-5-10.5-5h-3.6v-3.6h16.4c3.1,0,5.8,0.3,7.9,0.8
				c2.1,0.5,3.8,1.6,5.1,3.3c1.3,1.6,2.2,3.9,2.6,6.7c0.5,2.8,0.7,6.5,0.7,11V224.1z"/>
			<path class="st4" d="M843.4,232.3c-6.6,0-12-0.8-16.4-2.3c-4.4-1.5-7.8-3.8-10.4-7c-2.5-3.1-4.3-7.2-5.4-12.2
				c-1-5-1.6-10.8-1.6-17.6v-70l-45.4,100.9h-3.6l-47.3-102.7v102.7h-7.3v-120h17.3l43.6,94.5l42.7-94.5h16.4v89.1
				c0,11,1.4,19.7,4.2,26c2.8,6.3,7.2,9.4,13.1,9.4V232.3z"/>
			<path class="st4" d="M910,189.6l-25.4-60l-25.5,60l-14.5,34.5h-8.2l50.9-120h5.5l40,97.3c1.5,3.4,2.8,6.3,4.1,8.6
				c1.3,2.4,2.7,4.3,4.3,5.7c1.6,1.5,3.3,2.5,5.1,3.3c1.8,0.7,4,1.2,6.5,1.5v3.6c-2.1,0.6-4.5,0.9-7.3,0.9c-2.1,0-4.5-0.2-7.2-0.7
				c-2.7-0.5-5.5-1.5-8.4-3.2c-2.8-1.6-5.6-4-8.4-7.2c-2.7-3.2-5.1-7.3-7-12.6L910,189.6z"/>
			<path class="st4" d="M1036.9,193.6c0,5.1-0.9,9.7-2.6,13.8c-1.8,4.1-4.3,7.7-7.5,10.6c-3.3,3-7.2,5.2-11.9,6.8
				c-4.7,1.6-9.9,2.4-15.7,2.4c-5,0-9.9-0.5-14.8-1.6c-4.9-1-9.3-2.5-13.3-4.5c-3.9-1.9-7.2-4.3-9.6-7c-2.5-2.7-3.7-5.8-3.7-9.2
				v-19.5h3.6c2,12.2,6.1,21,12,26.4c6,5.3,14.1,8,24.3,8c3.1,0,6.1-0.4,8.9-1.2c2.8-0.8,5.3-2,7.5-3.6c2.2-1.6,3.9-3.5,5.2-5.8
				c1.3-2.3,2-5,2-8c0-5.3-1.7-9.9-5-13.6c-3.3-3.8-8.3-7.6-15-11.4L978.9,163c-7.8-4.6-13.2-9.3-16.4-14
				c-3.2-4.7-4.8-10.5-4.8-17.3c0-4.7,0.9-9,2.5-12.7c1.7-3.8,4.1-7,7.2-9.7c3.1-2.7,6.8-4.8,11.1-6.3c4.3-1.4,9.1-2.2,14.5-2.2
				c4.5,0,9.1,0.5,13.7,1.5c4.7,1,8.9,2.4,12.6,4.3c3.8,1.9,6.9,4.2,9.3,6.9c2.4,2.7,3.6,5.8,3.6,9.2v19.4h-3.6
				c-2-12.2-6-21-11.7-26.2c-5.8-5.2-13.8-7.8-24-7.8c-2.7,0-5.2,0.4-7.8,1.3c-2.5,0.8-4.8,2.1-6.7,3.6c-1.9,1.6-3.5,3.5-4.7,5.8
				c-1.2,2.3-1.8,4.8-1.8,7.6c0,2.7,0.4,5,1.3,7.1c0.8,2.1,2.1,4,3.8,5.8c1.7,1.8,3.8,3.6,6.4,5.4c2.5,1.8,5.5,3.6,8.7,5.5
				l22.4,13.3c3.9,2.3,7.2,4.5,10.1,6.6c2.8,2.1,5.2,4.4,7,6.7c1.8,2.4,3.2,4.9,4.1,7.5C1036.4,187.1,1036.9,190.2,1036.9,193.6z"/>
			<path class="st4" d="M1118.7,182.3l-21.8-52.7l-22.7,52.7l-17.3,41.8h-8.2l50.9-120h5.5l40,97.3c1.5,3.4,2.8,6.3,4.1,8.6
				c1.3,2.4,2.7,4.3,4.3,5.7c1.6,1.5,3.3,2.5,5.1,3.3c1.8,0.7,4,1.2,6.5,1.5v3.6c-2.1,0.6-4.5,0.9-7.3,0.9c-2.1,0-4.5-0.2-7.2-0.7
				c-2.7-0.5-5.5-1.5-8.4-3.2c-2.8-1.6-5.6-4-8.4-7.2c-2.7-3.2-5.1-7.3-7-12.6L1118.7,182.3z"/>
			<path class="st4" d="M1194.8,168.6h-12.7v55.4h-16.4v-98.2c0-5.4-0.8-9.8-2.3-13.2c-1.5-3.3-5-5-10.4-5h-3.6v-3.6h47.3
				c3.9,0,8.4,0.3,13.6,1c5.2,0.7,10.2,2.2,14.9,4.5c4.7,2.3,8.7,5.6,12,9.9c3.3,4.3,4.9,10.1,4.9,17.4c0,5.2-0.9,9.6-2.7,13.3
				c-1.8,3.6-4.2,6.6-7,9c-2.8,2.4-6,4.2-9.5,5.5c-3.4,1.3-6.8,2.4-9.9,3.1l19.1,31.8c2.3,3.9,4.5,7.1,6.5,9.6c2,2.5,4,4.6,5.9,6.3
				c1.9,1.6,3.9,2.8,5.8,3.5c1.9,0.7,4.1,1.2,6.4,1.5v3.6c-1,0.5-2.5,0.9-4.5,1.3c-2,0.4-4.1,0.5-6.4,0.5c-3.2,0-6.1-0.4-8.8-1.3
				c-2.7-0.8-5.4-2.3-7.9-4.4c-2.5-2.1-5.1-4.8-7.7-8.2c-2.6-3.4-5.4-7.6-8.3-12.5L1194.8,168.6z M1195.7,162.3
				c2.5,0,5.4-0.5,8.6-1.4c3.2-1,6.3-2.5,9.2-4.5c2.9-2,5.4-4.6,7.4-7.8c2-3.2,3-7.1,3-11.7c0-4.7-1-8.8-3-12.2
				c-2-3.4-4.5-6.1-7.4-8.2c-2.9-2.1-6-3.6-9.2-4.6c-3.2-1-6.1-1.4-8.6-1.4c-2.3,0-4.7,0.2-7.2,0.5c-2.5,0.4-4.6,0.8-6.5,1.3v48.2
				c1.8,0.5,4,0.9,6.5,1.3C1191,162.1,1193.4,162.3,1195.7,162.3z"/>
		</g>
	</g>
	<g>
		<g>
			<g>
				<path class="st5" d="M602.3,386.7c0,3.3-0.1,3.5-1.6,4.3c-7.8,4.1-19.7,5.4-29.1,5.4c-29.5,0-55.7-14-55.7-47.3
					c0-19.3,10-32.8,21-39.4c11.6-7,22.3-7.8,32.4-7.8c8.3,0,18.9,1.5,21.3,1.9c2.5,0.5,6.7,1.2,9.5,1.3c1.4,0.1,1.7,0.6,1.7,1.5
					c0,1.3-0.8,4.7-0.8,19.8c0,1.9-0.4,2.5-1.3,2.5c-0.8,0-1.1-0.6-1.2-1.6c-0.4-2.8-1-6.6-4.1-10c-3.6-3.9-13.3-9.4-26.9-9.4
					c-6.6,0-15.4,0.5-23.9,7.5c-6.7,5.7-11.1,14.7-11.1,29.5c0,25.9,16.5,45.3,42,45.3c3.1,0,7.4,0,10.2-1.3
					c1.8-0.8,2.3-2.4,2.3-4.5v-11.3c0-6,0-10.6-0.1-14.2c-0.1-4.1-1.2-6-5.2-6.9c-1-0.2-3-0.4-4.7-0.4c-1.1,0-1.8-0.2-1.8-1
					c0-1,0.8-1.2,2.5-1.2c6.3,0,13.9,0.4,17.5,0.4c3.7,0,10.1-0.4,14.1-0.4c1.6,0,2.4,0.2,2.4,1.2c0,0.7-0.7,1-1.6,1
					c-1,0-1.8,0.1-3.3,0.4c-3.3,0.6-4.5,2.7-4.6,6.9c-0.1,3.6-0.1,8.4-0.1,14.5V386.7z"/>
				<path class="st5" d="M635.9,338.5c0-18.3,0-21.7-0.2-25.6c-0.2-4.1-1.2-6-5.2-6.9c-1-0.2-3-0.4-4.7-0.4c-1.3,0-2-0.2-2-1.1
					c0-0.8,0.8-1.1,2.7-1.1c6.4,0,14,0.4,16.5,0.4c4.1,0,13.3-0.4,17-0.4c7.6,0,15.7,0.7,22.2,5.2c3.4,2.3,8.2,8.4,8.2,16.5
					c0,8.9-3.7,17.1-15.9,27c10.7,13.5,19.1,24.2,26.2,31.7c6.7,7,11.7,7.8,13.5,8.2c1.3,0.2,2.4,0.4,3.4,0.4c1,0,1.4,0.4,1.4,1
					c0,1-0.8,1.2-2.3,1.2h-11.5c-6.7,0-9.8-0.6-12.9-2.3c-5.2-2.8-9.8-8.4-16.5-17.7c-4.8-6.6-10.4-14.8-11.9-16.6
					c-0.6-0.7-1.3-0.8-2.2-0.8l-10.5-0.2c-0.6,0-1,0.2-1,1v1.7c0,11.2,0,20.7,0.6,25.8c0.4,3.5,1.1,6.2,4.7,6.6
					c1.8,0.2,4.5,0.5,5.9,0.5c1,0,1.4,0.4,1.4,1c0,0.8-0.8,1.2-2.4,1.2c-7,0-15.9-0.4-17.7-0.4c-2.3,0-9.9,0.4-14.7,0.4
					c-1.6,0-2.4-0.4-2.4-1.2c0-0.6,0.5-1,1.9-1c1.8,0,3.3-0.2,4.3-0.5c2.4-0.5,3-3.1,3.5-6.6c0.6-5.1,0.6-14.6,0.6-25.7V338.5z
					 M650.2,348.1c0,1.3,0.2,1.8,1.1,2.2c2.5,0.8,6.1,1.2,9.2,1.2c4.8,0,6.4-0.5,8.6-2.1c3.6-2.6,7.1-8.2,7.1-18.1
					c0-17.1-11.3-22.1-18.4-22.1c-3,0-5.2,0.1-6.4,0.5c-0.8,0.2-1.1,0.7-1.1,1.7V348.1z"/>
				<path class="st5" d="M731.7,364c-0.6,0-0.8,0.2-1.1,1l-6.5,16.5c-1.2,3-1.8,5.9-1.8,7.3c0,2.2,1.1,3.7,4.8,3.7h1.8
					c1.4,0,1.8,0.2,1.8,1c0,1-0.7,1.2-2,1.2c-3.9,0-9-0.4-12.8-0.4c-1.3,0-8,0.4-14.2,0.4c-1.6,0-2.3-0.2-2.3-1.2c0-0.7,0.5-1,1.4-1
					c1.1,0,2.8-0.1,3.7-0.2c5.5-0.7,7.8-4.8,10.2-10.8l30.3-74.8c1.4-3.5,2.2-4.8,3.4-4.8c1.1,0,1.8,1.1,3,3.9
					c2.9,6.6,22.2,54.9,29.9,73.2c4.6,10.8,8.1,12.5,10.6,13.1c1.8,0.4,3.6,0.5,5.1,0.5c1,0,1.6,0.1,1.6,1c0,1-1.1,1.2-5.6,1.2
					c-4.3,0-13.1,0-22.8-0.2c-2.2-0.1-3.6-0.1-3.6-1c0-0.7,0.5-1,1.7-1.1c0.8-0.2,1.7-1.3,1.1-2.8l-9.6-24.8
					c-0.2-0.6-0.6-0.8-1.2-0.8H731.7z M756.3,358c0.6,0,0.7-0.4,0.6-0.7l-10.9-29.7c-0.1-0.5-0.2-1.1-0.6-1.1
					c-0.4,0-0.6,0.6-0.7,1.1l-11.1,29.5c-0.1,0.5,0,0.8,0.5,0.8H756.3z"/>
				<path class="st5" d="M818,378.3c0.2,9.4,1.8,12.5,4.2,13.4c2,0.7,4.3,0.8,6.3,0.8c1.3,0,2,0.2,2,1c0,1-1.1,1.2-2.8,1.2
					c-7.8,0-12.7-0.4-14.9-0.4c-1.1,0-6.8,0.4-13,0.4c-1.6,0-2.7-0.1-2.7-1.2c0-0.7,0.7-1,1.9-1c1.6,0,3.7-0.1,5.4-0.6
					c3.1-1,3.6-4.5,3.7-15l1.1-71c0-2.4,0.4-4.1,1.6-4.1c1.3,0,2.4,1.6,4.5,3.7c1.4,1.6,19.8,20.9,37.4,38.3
					c8.2,8.2,24.5,25.6,26.5,27.5h0.6l-1.2-54.1c-0.1-7.4-1.2-9.7-4.1-10.9c-1.8-0.7-4.7-0.7-6.4-0.7c-1.4,0-1.9-0.4-1.9-1.1
					c0-1,1.3-1.1,3.1-1.1c6.3,0,12.1,0.4,14.6,0.4c1.3,0,5.9-0.4,11.8-0.4c1.6,0,2.8,0.1,2.8,1.1c0,0.7-0.7,1.1-2.2,1.1
					c-1.2,0-2.2,0-3.6,0.4c-3.4,1-4.3,3.5-4.5,10.2l-1.3,76.1c0,2.7-0.5,3.7-1.6,3.7c-1.3,0-2.8-1.3-4.1-2.7
					c-7.6-7.2-23-23-35.6-35.5c-13.1-13-26.5-27.7-28.7-30h-0.4L818,378.3z"/>
				<path class="st5" d="M925.4,338.5c0-18.3,0-21.7-0.2-25.6c-0.2-4.1-1.4-6.1-4.1-6.8c-1.3-0.4-2.9-0.5-4.3-0.5
					c-1.2,0-1.9-0.2-1.9-1.2c0-0.7,1-1,2.9-1c4.6,0,12.2,0.4,15.7,0.4c3,0,10.1-0.4,14.7-0.4c1.6,0,2.5,0.2,2.5,1
					c0,1-0.7,1.2-1.9,1.2c-1.2,0-2.2,0.1-3.6,0.4c-3.3,0.6-4.2,2.7-4.5,6.9c-0.2,3.9-0.2,7.2-0.2,25.6v21.2c0,11.7,0,21.2,0.5,26.4
					c0.4,3.3,1.2,5.4,4.8,5.9c1.7,0.2,4.3,0.5,6.1,0.5c1.3,0,1.9,0.4,1.9,1c0,0.8-1,1.2-2.3,1.2c-8,0-15.6-0.4-18.8-0.4
					c-2.8,0-10.4,0.4-15.2,0.4c-1.6,0-2.4-0.4-2.4-1.2c0-0.6,0.5-1,1.9-1c1.8,0,3.3-0.2,4.3-0.5c2.4-0.5,3.1-2.5,3.5-6
					c0.6-5.1,0.6-14.6,0.6-26.3V338.5z"/>
				<path class="st5" d="M995.9,310.3l-18,0.5c-7,0.2-9.9,0.8-11.7,3.5c-1.2,1.8-1.8,3.3-2.1,4.2c-0.2,1-0.6,1.4-1.3,1.4
					c-0.8,0-1.1-0.6-1.1-1.9c0-1.9,2.3-12.9,2.5-13.9c0.4-1.6,0.7-2.3,1.4-2.3c1,0,2.2,1.2,5.2,1.5c3.5,0.4,8.1,0.6,12,0.6h47.7
					c3.9,0,6.5-0.4,8.3-0.6c1.8-0.4,2.8-0.6,3.3-0.6c0.8,0,1,0.7,1,2.5c0,2.5-0.4,10.8-0.4,14c-0.1,1.2-0.4,1.9-1.1,1.9
					c-1,0-1.2-0.6-1.3-2.4l-0.1-1.3c-0.2-3.1-3.5-6.5-14.2-6.7l-15.2-0.4v49.4c0,11.1,0,20.6,0.6,25.8c0.4,3.4,1.1,6,4.7,6.5
					c1.7,0.2,4.3,0.5,6.1,0.5c1.3,0,1.9,0.4,1.9,1c0,0.8-1,1.2-2.3,1.2c-8,0-15.6-0.4-18.9-0.4c-2.8,0-10.4,0.4-15.2,0.4
					c-1.6,0-2.4-0.4-2.4-1.2c0-0.6,0.5-1,1.9-1c1.8,0,3.3-0.2,4.3-0.5c2.4-0.5,3.1-3.1,3.5-6.6c0.6-5.1,0.6-14.6,0.6-25.7V310.3z"/>
				<path class="st5" d="M1065.5,338.5c0-18.3,0-21.7-0.2-25.6c-0.2-4.1-1.2-6-5.2-6.9c-1-0.2-3-0.4-4.7-0.4c-1.3,0-2-0.2-2-1.1
					c0-0.8,0.8-1.1,2.6-1.1c3.3,0,6.8,0.1,9.8,0.1c3.1,0.1,5.9,0.2,7.6,0.2c3.9,0,27.8,0,30.1-0.1c2.3-0.2,4.2-0.5,5.2-0.7
					c0.6-0.1,1.3-0.5,1.9-0.5c0.6,0,0.7,0.5,0.7,1.1c0,0.8-0.6,2.3-1,7.8c-0.1,1.2-0.4,6.5-0.6,8c-0.1,0.6-0.4,1.3-1.2,1.3
					c-0.8,0-1.1-0.6-1.1-1.7c0-0.8-0.1-2.9-0.7-4.3c-0.8-2.2-2-3.6-8.1-4.3c-2.1-0.2-14.7-0.5-17.1-0.5c-0.6,0-0.8,0.4-0.8,1.2v30.5
					c0,0.8,0.1,1.3,0.8,1.3c2.7,0,16.5,0,19.3-0.2c2.9-0.2,4.7-0.6,5.8-1.8c0.8-1,1.3-1.6,1.9-1.6c0.5,0,0.8,0.2,0.8,1
					c0,0.7-0.5,2.7-1,8.8c-0.1,2.4-0.5,7.2-0.5,8.1c0,1,0,2.3-1.1,2.3c-0.8,0-1.1-0.5-1.1-1.1c-0.1-1.2-0.1-2.8-0.5-4.3
					c-0.6-2.4-2.3-4.2-6.7-4.7c-2.3-0.2-14.2-0.4-17.1-0.4c-0.6,0-0.7,0.5-0.7,1.2v9.5c0,4.1-0.1,15.2,0,18.7
					c0.2,8.3,2.2,10.1,14.5,10.1c3.1,0,8.2,0,11.3-1.4c3.1-1.4,4.6-4,5.4-8.9c0.2-1.3,0.5-1.8,1.3-1.8c1,0,1,1,1,2.2
					c0,2.8-1,11-1.6,13.4c-0.8,3.1-1.9,3.1-6.5,3.1c-9,0-15.7-0.2-20.9-0.4c-5.2-0.2-8.9-0.4-12.5-0.4c-1.3,0-4,0-6.9,0.1
					c-2.8,0-5.9,0.2-8.3,0.2c-1.6,0-2.4-0.4-2.4-1.2c0-0.6,0.5-1,1.9-1c1.8,0,3.3-0.2,4.3-0.5c2.4-0.5,3-3.1,3.5-6.6
					c0.6-5.1,0.6-14.6,0.6-25.7V338.5z"/>
				<path class="st5" d="M1206.7,342c-9.3-12.3-11-21.4-11.2-31.3c-0.2-17.4,15.2-40.5,53.5-40.5c10.8,0,20.7,2.2,26.7,4.6
					c3.7,1.3,3.7,3.1,3.7,5.7c0,7.3-1.8,24.9-2.4,28.2c-0.4,3.3-1.3,3.7-2.6,3.7c-1.3,0-1.5-0.9-1.5-4.2c0-5.7-1.5-12.8-6.4-18.5
					c-4.4-5.3-12.1-9.9-24.4-9.9c-9.3,0-23.6,6.4-23.6,25.1c0,20.7,18.9,38.3,36.6,57.9c7.5,8.6,34.6,33,38.8,36.8
					c4.4-6.2,10.6-20.5,10.6-33.9c0-3.3-0.9-7.3-4.2-10.1c-2.9-2.7-7.5-3.3-10.8-3.3c-1.3,0-2.6-0.4-2.6-1.8c0-1.8,1.8-2.2,3.5-2.2
					c5.3,0,14.1,0.2,26.4,1.5c4.2,0.4,7.5,1.8,7.5,4.4c0,17-9,37.5-21.6,52.2c14.8,12.1,24.7,18.1,30.6,21.6
					c7,4.2,19.2,7.7,23.6,7.7c2,0,3.1,0.2,3.1,2c0,1.3-1.8,2-6.6,2h-17c-25.1,0-33-2.4-52-17c-7.3,6.6-22,20-52.2,20
					c-47.1,0-61.2-29.5-61.2-48.7C1170.8,368.5,1193.5,348.4,1206.7,342z M1275.7,415.8c-12.8-11-33.9-31.7-39.7-37.9
					c-5.7-6.2-19.8-22-23.6-27.5c-7.5,5.5-15.2,15.9-15.2,33.5c0,27.5,19.4,45.2,42.3,45.2C1256.5,429,1271,420.2,1275.7,415.8z"/>
				<path class="st5" d="M1401.2,305c0.4-2,1.1-3.1,2.1-3.1c1,0,1.7,0.6,3.3,3.7l32.9,67l32.8-67.9c1-1.9,1.6-2.9,2.7-2.9
					c1.1,0,1.8,1.2,2.2,3.7l11,73.8c1.1,7.6,2.3,11.1,5.9,12.2c3.5,1.1,5.9,1.2,7.5,1.2c1.1,0,1.9,0.1,1.9,0.8c0,1-1.4,1.3-3.1,1.3
					c-3,0-19.7-0.2-24.5-0.6c-2.8-0.2-3.5-0.6-3.5-1.3c0-0.6,0.5-1,1.3-1.3c0.7-0.2,1.1-1.8,0.6-5.2l-7.2-52.4h-0.5l-26.3,53.8
					c-2.8,5.7-3.4,6.7-4.5,6.7c-1.1,0-2.3-2.4-4.2-6c-2.9-5.5-12.4-24-13.9-27.4c-1.1-2.5-8.3-16.8-12.5-25.8h-0.5l-6.3,47
					c-0.2,2.2-0.4,3.7-0.4,5.7c0,2.3,1.6,3.4,3.6,3.9c2.2,0.5,3.9,0.6,5.1,0.6c1,0,1.8,0.2,1.8,0.8c0,1.1-1.1,1.3-2.9,1.3
					c-5.1,0-10.5-0.4-12.7-0.4c-2.3,0-8.1,0.4-11.9,0.4c-1.2,0-2.2-0.2-2.2-1.3c0-0.6,0.7-0.8,1.9-0.8c1,0,1.8,0,3.6-0.4
					c3.4-0.7,4.3-5.4,4.9-9.5L1401.2,305z"/>
				<path class="st5" d="M1528.5,364c-0.6,0-0.8,0.2-1.1,1l-6.5,16.5c-1.2,3-1.8,5.9-1.8,7.3c0,2.2,1.1,3.7,4.8,3.7h1.8
					c1.4,0,1.8,0.2,1.8,1c0,1-0.7,1.2-2.1,1.2c-3.9,0-9-0.4-12.8-0.4c-1.3,0-7.9,0.4-14.2,0.4c-1.6,0-2.3-0.2-2.3-1.2
					c0-0.7,0.5-1,1.4-1c1.1,0,2.8-0.1,3.7-0.2c5.5-0.7,7.8-4.8,10.2-10.8l30.3-74.8c1.5-3.5,2.2-4.8,3.4-4.8c1.1,0,1.8,1.1,3,3.9
					c2.9,6.6,22.2,54.9,29.9,73.2c4.6,10.8,8.1,12.5,10.6,13.1c1.8,0.4,3.6,0.5,5.1,0.5c1,0,1.6,0.1,1.6,1c0,1-1.1,1.2-5.6,1.2
					c-4.3,0-13.1,0-22.8-0.2c-2.2-0.1-3.6-0.1-3.6-1c0-0.7,0.5-1,1.7-1.1c0.8-0.2,1.7-1.3,1.1-2.8l-9.6-24.8
					c-0.2-0.6-0.6-0.8-1.2-0.8H1528.5z M1553.1,358c0.6,0,0.7-0.4,0.6-0.7l-10.9-29.7c-0.1-0.5-0.2-1.1-0.6-1.1
					c-0.4,0-0.6,0.6-0.7,1.1l-11.1,29.5c-0.1,0.5,0,0.8,0.5,0.8H1553.1z"/>
				<path class="st5" d="M1608.1,338.5c0-18.3,0-21.7-0.2-25.6c-0.2-4.1-1.2-6-5.2-6.9c-1-0.2-3-0.4-4.7-0.4c-1.3,0-2.1-0.2-2.1-1.1
					c0-0.8,0.8-1.1,2.7-1.1c6.4,0,14,0.4,16.5,0.4c4.1,0,13.3-0.4,17-0.4c7.6,0,15.7,0.7,22.2,5.2c3.4,2.3,8.2,8.4,8.2,16.5
					c0,8.9-3.7,17.1-15.9,27c10.7,13.5,19.1,24.2,26.2,31.7c6.7,7,11.7,7.8,13.5,8.2c1.3,0.2,2.4,0.4,3.4,0.4c1,0,1.5,0.4,1.5,1
					c0,1-0.9,1.2-2.3,1.2h-11.5c-6.7,0-9.8-0.6-12.9-2.3c-5.2-2.8-9.8-8.4-16.5-17.7c-4.8-6.6-10.4-14.8-11.9-16.6
					c-0.6-0.7-1.3-0.8-2.2-0.8l-10.5-0.2c-0.6,0-1,0.2-1,1v1.7c0,11.2,0,20.7,0.6,25.8c0.4,3.5,1.1,6.2,4.7,6.6
					c1.8,0.2,4.5,0.5,5.9,0.5c1,0,1.4,0.4,1.4,1c0,0.8-0.8,1.2-2.4,1.2c-7,0-15.9-0.4-17.7-0.4c-2.3,0-9.9,0.4-14.7,0.4
					c-1.6,0-2.4-0.4-2.4-1.2c0-0.6,0.5-1,1.9-1c1.8,0,3.3-0.2,4.3-0.5c2.4-0.5,3-3.1,3.5-6.6c0.6-5.1,0.6-14.6,0.6-25.7V338.5z
					 M1622.3,348.1c0,1.3,0.2,1.8,1.1,2.2c2.5,0.8,6.1,1.2,9.2,1.2c4.8,0,6.4-0.5,8.6-2.1c3.6-2.6,7.1-8.2,7.1-18.1
					c0-17.1-11.3-22.1-18.4-22.1c-3,0-5.2,0.1-6.4,0.5c-0.8,0.2-1.1,0.7-1.1,1.7V348.1z"/>
				<path class="st5" d="M1699.1,338.5c0-18.3,0-21.7-0.2-25.6c-0.2-4.1-1.2-6-5.2-6.9c-1-0.2-3-0.4-4.7-0.4c-1.3,0-2-0.2-2-1.1
					c0-0.8,0.8-1.1,2.6-1.1c6.4,0,14,0.4,16.4,0.4c5.9,0,10.6-0.4,14.7-0.4c21.8,0,25.7,11.7,25.7,18.1c0,9.9-5.7,15.8-12.3,21.1
					c9.9,3.4,21.9,11.9,21.9,26c0,12.9-10,26.3-32.2,26.3c-1.5,0-4.9-0.2-8.4-0.4c-3.6-0.2-7.2-0.4-9-0.4c-1.3,0-4,0-6.9,0.1
					c-2.8,0-5.9,0.2-8.3,0.2c-1.6,0-2.4-0.4-2.4-1.2c0-0.6,0.5-1,1.9-1c1.8,0,3.3-0.2,4.3-0.5c2.4-0.5,3-3.1,3.5-6.6
					c0.6-5.1,0.6-14.6,0.6-25.7V338.5z M1713.5,340.6c0,1,0.4,1.2,0.8,1.3c1.1,0.2,2.9,0.4,5.7,0.4c4,0,6.6-0.5,8.7-2.3
					c3.1-2.5,4.9-6.9,4.9-12.8c0-8.1-4.7-18.7-15.1-18.7c-1.7,0-2.8,0-4,0.2c-0.8,0.2-1.1,0.7-1.1,2.1V340.6z M1729.4,350.2
					c-2.5-1.8-5.3-2.7-10-2.9c-2.2-0.1-3.4-0.1-5.2-0.1c-0.5,0-0.7,0.2-0.7,0.8v28.6c0,8,0.4,10,4.2,11.6c3.3,1.3,6,1.5,8.8,1.5
					c5.4,0,14.6-2.9,14.6-15.4C1741.1,366.8,1738.6,356.6,1729.4,350.2z"/>
				<path class="st5" d="M1796.9,359.8c0,15.4,0,23.8,2.5,25.9c2,1.8,5.2,2.7,14.6,2.7c6.4,0,11.1-0.1,14.1-3.4
					c1.4-1.6,2.9-4.9,3.1-7.2c0.1-1.1,0.4-1.8,1.3-1.8c0.8,0,1,0.6,1,2c0,1.3-0.8,10.4-1.8,13.9c-0.7,2.7-1.3,3.3-7.6,3.3
					c-8.7,0-14.9-0.2-20.4-0.4c-5.4-0.2-9.8-0.4-14.7-0.4c-1.3,0-4,0-6.9,0.1c-2.8,0-5.9,0.2-8.3,0.2c-1.6,0-2.4-0.4-2.4-1.2
					c0-0.6,0.5-1,1.9-1c1.8,0,3.2-0.2,4.3-0.5c2.4-0.5,3-3.1,3.5-6.6c0.6-5.1,0.6-14.6,0.6-25.7v-21.2c0-18.3,0-21.7-0.2-25.6
					c-0.2-4.1-1.2-6-5.2-6.9c-1-0.2-2.4-0.4-4-0.4c-1.3,0-2-0.2-2-1.1c0-0.8,0.8-1.1,2.7-1.1c5.7,0,13.3,0.4,16.5,0.4
					c2.9,0,11.7-0.4,16.4-0.4c1.7,0,2.5,0.2,2.5,1.1c0,0.8-0.7,1.1-2.2,1.1c-1.3,0-3.3,0.1-4.7,0.4c-3.3,0.6-4.2,2.7-4.5,6.9
					c-0.2,3.9-0.2,7.2-0.2,25.6V359.8z"/>
				<path class="st5" d="M1854.8,338.5c0-18.3,0-21.7-0.2-25.6c-0.2-4.1-1.2-6-5.2-6.9c-1-0.2-3-0.4-4.7-0.4c-1.3,0-2.1-0.2-2.1-1.1
					c0-0.8,0.9-1.1,2.7-1.1c3.3,0,6.8,0.1,9.8,0.1c3.1,0.1,5.9,0.2,7.6,0.2c3.9,0,27.8,0,30.1-0.1c2.3-0.2,4.2-0.5,5.2-0.7
					c0.6-0.1,1.3-0.5,1.9-0.5c0.6,0,0.7,0.5,0.7,1.1c0,0.8-0.6,2.3-1,7.8c-0.1,1.2-0.4,6.5-0.6,8c-0.1,0.6-0.4,1.3-1.2,1.3
					c-0.8,0-1.1-0.6-1.1-1.7c0-0.8-0.1-2.9-0.7-4.3c-0.8-2.2-2-3.6-8.1-4.3c-2.1-0.2-14.7-0.5-17.1-0.5c-0.6,0-0.8,0.4-0.8,1.2v30.5
					c0,0.8,0.1,1.3,0.8,1.3c2.7,0,16.5,0,19.3-0.2c2.9-0.2,4.7-0.6,5.8-1.8c0.8-1,1.3-1.6,1.9-1.6c0.5,0,0.8,0.2,0.8,1
					c0,0.7-0.5,2.7-1,8.8c-0.1,2.4-0.5,7.2-0.5,8.1c0,1,0,2.3-1.1,2.3c-0.8,0-1.1-0.5-1.1-1.1c-0.1-1.2-0.1-2.8-0.5-4.3
					c-0.6-2.4-2.3-4.2-6.7-4.7c-2.3-0.2-14.2-0.4-17.1-0.4c-0.6,0-0.7,0.5-0.7,1.2v9.5c0,4.1-0.1,15.2,0,18.7
					c0.2,8.3,2.2,10.1,14.5,10.1c3.1,0,8.2,0,11.3-1.4c3.1-1.4,4.6-4,5.4-8.9c0.2-1.3,0.5-1.8,1.3-1.8c1,0,1,1,1,2.2
					c0,2.8-1,11-1.6,13.4c-0.8,3.1-1.9,3.1-6.5,3.1c-9,0-15.7-0.2-20.9-0.4c-5.2-0.2-8.9-0.4-12.5-0.4c-1.3,0-4,0-6.9,0.1
					c-2.8,0-5.9,0.2-8.3,0.2c-1.6,0-2.4-0.4-2.4-1.2c0-0.6,0.5-1,1.9-1c1.8,0,3.3-0.2,4.3-0.5c2.4-0.5,3-3.1,3.5-6.6
					c0.6-5.1,0.6-14.6,0.6-25.7V338.5z"/>
			</g>
		</g>
		<line class="st6" x1="522.3" y1="425.3" x2="1119.8" y2="425.3"/>
		<line class="st6" x1="1380.9" y1="425.3" x2="1905" y2="425.3"/>
	</g>
</g>
</svg>
